<svg width="1390.000000" height="1035.000000" viewBox="0 0 1390 1035" fill="none" xmlns="http://www.w3.org/2000/svg" xmlns:xlink="http://www.w3.org/1999/xlink">
	<desc>
			Created with Pixso.
	</desc>
	<defs>
		<filter id="filter_0_259_dd" x="-0.551025" y="232.000000" width="1214.566895" height="803.000000" filterUnits="userSpaceOnUse" color-interpolation-filters="sRGB">
			<feFlood flood-opacity="0" result="BackgroundImageFix"/>
			<feColorMatrix in="SourceAlpha" type="matrix" values="0 0 0 0 0 0 0 0 0 0 0 0 0 0 0 0 0 0 127 0" result="hardAlpha"/>
			<feOffset dx="0" dy="2"/>
			<feGaussianBlur stdDeviation="25.6667"/>
			<feComposite in2="hardAlpha" operator="out" k2="-1" k3="1"/>
			<feColorMatrix type="matrix" values="0 0 0 0 0 0 0 0 0 0 0 0 0 0 0 0 0 0 0.024 0"/>
			<feBlend mode="normal" in2="BackgroundImageFix" result="effect_dropShadow_1"/>
			<feBlend mode="normal" in="SourceGraphic" in2="effect_dropShadow_1" result="shape"/>
		</filter>
		<linearGradient id="paint_linear_0_260_0" x1="-456.912781" y1="323.138184" x2="770.912903" y2="969.414551" gradientUnits="userSpaceOnUse">
			<stop stop-color="#33D35E"/>
			<stop offset="1.000000" stop-color="#2AB6D9"/>
		</linearGradient>
	</defs>
	<g filter="url(#filter_0_259_dd)">
		<path d="M117.2 503.39C80.96 503.39 62.81 547.21 88.44 572.83L222.72 707.11C241.48 725.86 266.91 736.39 293.43 736.39L364.13 736.39C390.65 736.39 416.08 746.93 434.83 765.68L595.87 926.71C614.63 945.46 640.06 956 666.58 956L1055.43 956C1127.97 956 1164.3 868.3 1113 817.01L1026.61 730.63C1007.2 711.22 1020.95 678.03 1048.4 678.03C1075.85 678.03 1089.6 644.84 1070.18 625.43L874.85 430.11C856.09 411.35 830.66 400.82 804.14 400.82L569.7 400.82C543.18 400.82 517.74 390.28 498.99 371.53L463.74 336.28C444.98 317.53 419.55 307 393.03 307L157.88 307C106.63 307 80.96 368.96 117.2 405.19L145.96 433.95C171.59 459.58 153.44 503.39 117.2 503.39Z" fill="#2D314D" fill-opacity="1.000000" fill-rule="evenodd"/>
	</g>
	<path d="M255.2 196.39C218.96 196.39 200.81 240.21 226.44 265.83L360.72 400.11C379.48 418.86 404.91 429.39 431.43 429.39L502.13 429.39C528.65 429.39 554.08 439.93 572.83 458.68L733.87 619.71C752.63 638.46 778.06 649 804.58 649L1193.43 649C1265.97 649 1302.3 561.3 1251 510.01L1164.61 423.63C1145.19 404.22 1158.94 371.03 1186.4 371.03L1186.4 371.03C1213.85 371.03 1227.6 337.84 1208.18 318.43L1012.85 123.11C994.09 104.35 968.66 93.82 942.14 93.82L707.7 93.82C681.18 93.82 655.74 83.28 636.99 64.53L601.74 29.28C582.98 10.53 557.55 0 531.03 0L295.88 0C244.63 0 218.96 61.96 255.2 98.19L283.96 126.95C309.59 152.58 291.44 196.39 255.2 196.39L255.2 196.39Z" fill="url(#paint_linear_0_260_0)" fill-opacity="1.000000" fill-rule="evenodd"/>
</svg>
